<?xml version="1.0" encoding="utf-8"?>
<!-- Generator: Adobe Illustrator 25.0.0, SVG Export Plug-In . SVG Version: 6.00 Build 0)  -->
<svg version="1.1" id="Layer_1" xmlns="http://www.w3.org/2000/svg" xmlns:xlink="http://www.w3.org/1999/xlink" x="0px" y="0px"
	 viewBox="0 0 35 35" style="enable-background:new 0 0 35 35;" xml:space="preserve">
<style type="text/css">
	.st0{fill:#FFFFFF;}
	.st1{fill:#3E63F9;}
</style>
<g>
	<circle class="st0" cx="17.5" cy="17.5" r="17.5"/>
	<path class="st1" d="M18.9,9.6L18,8.7c-0.4-0.4-1-0.4-1.4,0l-7.9,8.1c-0.4,0.4-0.4,1,0,1.4l7.9,8.1c0.4,0.4,1,0.4,1.4,0l0.9-0.9
		c0.4-0.4,0.4-1,0-1.4L14,19.2h11.7c0.5,0,1-0.4,1-1v-1.3c0-0.6-0.4-1-1-1H14l4.9-4.8C19.2,10.7,19.3,10,18.9,9.6z"/>
</g>
</svg>
