<?xml version="1.0" encoding="utf-8"?>
<!-- Generator: Adobe Illustrator 25.0.0, SVG Export Plug-In . SVG Version: 6.00 Build 0)  -->
<svg version="1.1" id="Layer_1" xmlns="http://www.w3.org/2000/svg" xmlns:xlink="http://www.w3.org/1999/xlink" x="0px" y="0px"
	 viewBox="0 0 35 35" style="enable-background:new 0 0 35 35;" xml:space="preserve">
<style type="text/css">
	.st0{fill:#FFFFFF;}
	.st1{fill:#3E63F9;}
</style>
<g>
	<circle class="st0" cx="17.5" cy="17.5" r="17.5"/>
	<path class="st1" d="M16.2,11l4.9,4.8H9.4c-0.5,0-1,0.4-1,1v1.3c0,0.6,0.4,1,1,1H21L16.2,24c-0.4,0.4-0.4,1,0,1.4l0.9,0.9
		c0.4,0.4,1,0.4,1.4,0l7.9-8.1c0.4-0.4,0.4-1,0-1.4l-7.9-8.1c-0.4-0.4-1-0.4-1.4,0l-0.9,0.9C15.7,10,15.8,10.7,16.2,11z"/>
</g>
</svg>
